<svg width="1205" height="25" viewBox="0 0 1205 25" fill="none" xmlns="http://www.w3.org/2000/svg">
<g clip-path="url(#clip0_168_2946)">
<path d="M606.745 12.7102C606.745 15.0502 604.841 16.9502 602.495 16.9502C600.149 16.9502 598.244 15.0502 598.244 12.7102C598.244 10.3702 600.149 8.47021 602.495 8.47021C604.841 8.47021 606.745 10.3702 606.745 12.7102Z" fill="#7BA2BF"/>
<path d="M1176.93 12.71C1186.82 12.71 1194.87 7.02 1194.87 0C1194.87 3.8 1197.22 7.21 1200.95 9.54C1203.68 11.24 1203.68 14.17 1200.95 15.87C1197.22 18.2 1194.87 21.61 1194.87 25.41C1194.87 18.39 1186.82 12.7 1176.93 12.7V12.71Z" fill="#7BA2BF"/>
<path d="M1168.79 12.7102C1168.79 15.0502 1171.47 16.9502 1174.77 16.9502C1178.08 16.9502 1180.76 15.0502 1180.76 12.7102C1180.76 10.3702 1178.08 8.47021 1174.77 8.47021C1171.47 8.47021 1168.79 10.3702 1168.79 12.7102Z" fill="#7BA2BF"/>
<path d="M1173.97 11H605.503V14H1173.97V11Z" fill="#7BA2BF"/>
<path d="M601.5 11H36.0303V14H601.5V11Z" fill="#7BA2BF"/>
<path d="M10.1354 25.42C10.1354 21.62 7.77928 18.21 4.0547 15.88C1.3177 14.18 1.3177 11.25 4.0547 9.55C7.79338 7.21 10.1354 3.8 10.1354 0C10.1354 7.02 18.177 12.71 28.0669 12.71C18.177 12.71 10.1354 18.4 10.1354 25.42Z" fill="#7BA2BF"/>
<path d="M36.2216 12.7102C36.2216 15.0502 33.541 16.9502 30.2397 16.9502C26.9384 16.9502 24.2578 15.0502 24.2578 12.7102C24.2578 10.3702 26.9384 8.47021 30.2397 8.47021C33.541 8.47021 36.2216 10.3702 36.2216 12.7102Z" fill="#7BA2BF"/>
</g>
<defs>
<clipPath id="clip0_168_2946">
<rect width="1205" height="25" fill="white"/>
</clipPath>
</defs>
</svg>
