<?xml version="1.0" encoding="UTF-8"?>
<svg version="1.1" xmlns="http://www.w3.org/2000/svg" width="267" height="50">
<path d="M0 0 C5.80565333 4.23395712 9.57866652 9.48485282 11.12109375 16.546875 C12.0522558 23.6512966 10.95527312 29.46857301 7.12109375 35.546875 C2.0931449 41.95626524 -3.69825298 45.52429334 -11.87890625 46.546875 C-20.27169082 47.19247381 -27.5785446 44.69747011 -34.08203125 39.390625 C-39.27758115 34.05953902 -41.17708479 28.28024339 -41.44140625 20.921875 C-41.04361594 12.4389967 -38.63315494 7.94969965 -32.50390625 2.171875 C-23.61142877 -5.71509266 -10.06407863 -5.88310672 0 0 Z M-29.5546875 5.60546875 C-33.99710999 12.11840083 -34.70667905 18.79075728 -33.87890625 26.546875 C-32.38116407 33.18802639 -28.8578349 39.19508922 -23.50390625 43.421875 C-18.82396681 45.42756333 -14.78288515 46.07962012 -9.87890625 44.609375 C-4.23921915 42.18923743 -0.45311305 37.75111153 2.22265625 32.3046875 C5.34977463 23.85854534 4.64179892 16.74661257 1.12109375 8.546875 C-1.68521635 3.14212962 -5.31355556 -0.08532125 -10.87890625 -2.453125 C-18.95163454 -4.05557668 -24.69313907 -0.50655671 -29.5546875 5.60546875 Z " fill="#FFFFFF" transform="translate(255.87890625,3.453125)"/>
<path d="M0 0 C12.54 0 25.08 0 38 0 C38 3.63 38 7.26 38 11 C37.34 11 36.68 11 36 11 C35.566875 9.88625 35.13375 8.7725 34.6875 7.625 C33.30088881 3.82487666 33.30088881 3.82487666 30 2 C27.87662229 1.63566627 27.87662229 1.63566627 25.55078125 1.5859375 C24.70322266 1.54726563 23.85566406 1.50859375 22.98242188 1.46875 C22.10134766 1.4378125 21.22027344 1.406875 20.3125 1.375 C19.41982422 1.33632813 18.52714844 1.29765625 17.60742188 1.2578125 C15.4051538 1.16359782 13.20289278 1.07798412 11 1 C11.33 1.66 11.66 2.32 12 3 C12.08400529 4.59447464 12.10727467 6.19240545 12.09765625 7.7890625 C12.09443359 8.73007813 12.09121094 9.67109375 12.08789062 10.640625 C12.07951172 11.62546875 12.07113281 12.6103125 12.0625 13.625 C12.05798828 14.61757812 12.05347656 15.61015625 12.04882812 16.6328125 C12.03702145 19.0886016 12.020554 21.54427104 12 24 C13.79258558 23.91306859 15.58415144 23.80489496 17.375 23.6875 C18.37273437 23.62949219 19.37046875 23.57148438 20.3984375 23.51171875 C21.25695312 23.34285156 22.11546875 23.17398437 23 23 C23.66 22.01 24.32 21.02 25 20 C25.66 20 26.32 20 27 20 C27 23.3 27 26.6 27 30 C26.34 30 25.68 30 25 30 C24.67 29.01 24.34 28.02 24 27 C20.87268146 25.28800934 20.87268146 25.28800934 12 25 C12 32.92 12 40.84 12 49 C14.35125 48.896875 16.7025 48.79375 19.125 48.6875 C19.85348145 48.66260498 20.58196289 48.63770996 21.33251953 48.61206055 C25.8825684 48.35845734 29.16706298 47.46403094 33 45 C34.30849363 43.25298762 34.30849363 43.25298762 34.875 41.3125 C35.24625 40.219375 35.6175 39.12625 36 38 C36.66 38 37.32 38 38 38 C38 41.96 38 45.92 38 50 C25.46 50 12.92 50 0 50 C0 49.34 0 48.68 0 48 C1.485 47.505 1.485 47.505 3 47 C4.70955668 43.58088664 4.14146246 39.66764905 4.1328125 35.90625 C4.13424759 34.5525531 4.13424759 34.5525531 4.13571167 33.17150879 C4.13639279 31.26163666 4.13454321 29.35176222 4.13037109 27.44189453 C4.12502189 24.51199157 4.13031837 21.58224192 4.13671875 18.65234375 C4.13605796 16.79947883 4.13477677 14.946614 4.1328125 13.09375 C4.13483673 12.21352173 4.13686096 11.33329346 4.13894653 10.4263916 C4.25670172 6.0767807 4.25670172 6.0767807 3 2 C2.01 1.34 1.02 0.68 0 0 Z " fill="#FFFFFF" transform="translate(124,0)"/>
<path d="M0 0 C10.89 0 21.78 0 33 0 C33 3.63 33 7.26 33 11 C31 8 31 8 30.1640625 5.921875 C28.60260107 3.3438917 27.23033021 3.06580863 24.375 2.25 C23.55773437 2.00765625 22.74046875 1.7653125 21.8984375 1.515625 C21.27195312 1.34546875 20.64546875 1.1753125 20 1 C20.11743621 7.2297985 20.24227034 13.45941685 20.37231445 19.68896484 C20.41569752 21.80937313 20.45737007 23.92981712 20.49731445 26.05029297 C20.55493543 29.09353408 20.61865325 32.1365949 20.68359375 35.1796875 C20.70030624 36.13181122 20.71701874 37.08393494 20.73423767 38.06491089 C20.75418289 38.94567291 20.77412811 39.82643494 20.79467773 40.73388672 C20.81799416 41.89970779 20.81799416 41.89970779 20.84178162 43.08908081 C20.88783251 45.08556935 20.88783251 45.08556935 22 47 C23.485 47.495 23.485 47.495 25 48 C25 48.66 25 49.32 25 50 C19.39 50 13.78 50 8 50 C8 49.34 8 48.68 8 48 C9.32 47.34 10.64 46.68 12 46 C12.33 31.15 12.66 16.3 13 1 C5.02426758 2.99374932 5.02426758 2.99374932 3 7.6875 C2.67 8.780625 2.34 9.87375 2 11 C1.34 11 0.68 11 0 11 C0 7.37 0 3.74 0 0 Z " fill="#FFFFFF" transform="translate(84,0)"/>
<path d="M0 0 C5.61 0 11.22 0 17 0 C15.68 0.99 14.36 1.98 13 3 C12.39536941 5.00624425 12.39536941 5.00624425 12.4699707 7.25610352 C12.45347977 8.11031387 12.43698883 8.96452423 12.41999817 9.84461975 C12.42190659 10.7634343 12.423815 11.68224884 12.42578125 12.62890625 C12.41161667 13.57434799 12.39745209 14.51978973 12.38285828 15.49388123 C12.34088468 18.51686948 12.32570401 21.53926105 12.3125 24.5625 C12.28347025 27.58903164 12.24894936 30.61541066 12.21000671 33.64183044 C12.1874762 35.52592588 12.17168313 37.4101159 12.16316223 39.29432678 C12.15612778 40.14538498 12.14909332 40.99644318 12.1418457 41.87329102 C12.13662651 42.99889183 12.13662651 42.99889183 12.13130188 44.14723206 C12 46 12 46 11 48 C14.27116732 47.86111494 17.541834 47.71269508 20.8125 47.5625 C21.74126953 47.52318359 22.67003906 47.48386719 23.62695312 47.44335938 C24.51962891 47.40146484 25.41230469 47.35957031 26.33203125 47.31640625 C27.15421143 47.27974854 27.9763916 47.24309082 28.82348633 47.20532227 C31.17905178 47.06572228 31.17905178 47.06572228 34 46 C34.80212628 44.12612784 34.80212628 44.12612784 35.1875 41.9375 C35.34605469 41.20402344 35.50460938 40.47054687 35.66796875 39.71484375 C35.77753906 39.14894531 35.88710937 38.58304688 36 38 C36.33 38 36.66 38 37 38 C37 41.96 37 45.92 37 50 C24.79 50 12.58 50 0 50 C0 49.34 0 48.68 0 48 C1.485 47.505 1.485 47.505 3 47 C4.15410254 44.69179492 4.1210297 43.39215724 4.11352539 40.82568359 C4.11344986 39.96494232 4.11337433 39.10420105 4.11329651 38.21737671 C4.10813522 37.28712677 4.10297394 36.35687683 4.09765625 35.3984375 C4.0962413 34.44683746 4.09482635 33.49523743 4.09336853 32.51480103 C4.08776012 29.46816903 4.07520619 26.42160987 4.0625 23.375 C4.05748608 21.31250106 4.05292299 19.25000097 4.04882812 17.1875 C4.03778796 12.12497183 4.02051767 7.06249827 4 2 C2.68 1.34 1.36 0.68 0 0 Z " fill="#FFFFFF" transform="translate(49,0)"/>
<path d="M0 0 C0.66 0 1.32 0 2 0 C3.97743044 6.04999071 5.95271642 12.10067847 7.92651367 18.15185547 C8.59822025 20.21028495 9.27041744 22.2685544 9.94311523 24.32666016 C10.90998316 27.28506194 11.87508488 30.24403487 12.83984375 33.203125 C13.14091537 34.12305237 13.441987 35.04297974 13.75218201 35.99078369 C14.032397 36.8513739 14.312612 37.71196411 14.60131836 38.59863281 C14.97105019 39.73114471 14.97105019 39.73114471 15.34825134 40.88653564 C16 43 16 43 16.42726135 45.19696045 C16.61626511 45.7919635 16.80526886 46.38696655 17 47 C19.49034386 48.29660434 19.49034386 48.29660434 22 49 C22 49.33 22 49.66 22 50 C16.39 50 10.78 50 5 50 C5.99 49.01 6.98 48.02 8 47 C5.98456286 39.36339 3.73688696 31.8286057 1.3125 24.3125 C0.99216797 23.31283203 0.67183594 22.31316406 0.34179688 21.28320312 C-0.4366921 18.85478228 -1.21731242 16.42707018 -2 14 C-3.43209819 18.05405667 -4.8560059 22.1108693 -6.27246094 26.17041016 C-6.7552554 27.55042467 -7.24026201 28.92966736 -7.72753906 30.30810547 C-8.428391 32.29194555 -9.1211866 34.27844401 -9.8125 36.265625 C-10.23144531 37.45961914 -10.65039062 38.65361328 -11.08203125 39.88378906 C-12.18838212 43.09806293 -12.18838212 43.09806293 -12 47 C-11.34 47.33 -10.68 47.66 -10 48 C-10 48.66 -10 49.32 -10 50 C-13.3 50 -16.6 50 -20 50 C-20 49.34 -20 48.68 -20 48 C-19.24750977 47.66234619 -18.49501953 47.32469238 -17.71972656 46.97680664 C-13.59029477 43.97536954 -12.92234333 40.13588491 -11.484375 35.37109375 C-11.18307678 34.42565201 -10.88177856 33.48021027 -10.5713501 32.50611877 C-9.61362753 29.48837713 -8.68136312 26.46346897 -7.75 23.4375 C-6.79866351 20.40997483 -5.84231664 17.38406237 -4.88580322 14.35816956 C-4.29279504 12.47534149 -3.70393104 10.5912023 -3.11956787 8.70567322 C-2.85549133 7.85461502 -2.59141479 7.00355682 -2.31933594 6.12670898 C-2.08792908 5.37630844 -1.85652222 4.6259079 -1.61810303 3.85276794 C-1 2 -1 2 0 0 Z " fill="#FFFFFF" transform="translate(20,0)"/>
<path d="M0 0 C1.21429688 -0.01417969 2.42859375 -0.02835937 3.6796875 -0.04296875 C6.98992576 0.17846442 9.12828754 0.86275011 12.125 2.1875 C14.46006599 1.85391914 16.01879608 1.24060196 18.125 0.1875 C18.125 3.8175 18.125 7.4475 18.125 11.1875 C17.650625 10.445 17.17625 9.7025 16.6875 8.9375 C12.11022684 4.02530441 6.67887175 1.982755 0 1.6875 C-4.76768326 1.92403622 -8.31882345 2.9299337 -11.875 6.1875 C-18.03728933 13.9984018 -18.67336248 21.40474852 -17.875 31.1875 C-16.26128727 38.02964197 -13.69078326 42.2681678 -7.875 46.1875 C-2.90269078 48.67365461 3.94777215 47.90939252 9.0703125 46.2109375 C13.80898144 43.9590336 15.69994674 43.03760652 18.125 38.1875 C18.125 41.8175 18.125 45.4475 18.125 49.1875 C16.475 48.5275 14.825 47.8675 13.125 47.1875 C10.61347523 47.97320064 10.61347523 47.97320064 8.125 49.1875 C-1.24405277 51.09352506 -8.81693461 49.90341371 -16.9765625 44.8984375 C-22.97669543 40.32812348 -25.60046342 33.99799431 -26.8125 26.6875 C-27.31094275 19.70930157 -24.6661913 13.26055566 -20.46875 7.7578125 C-14.7680004 2.14089745 -7.79479013 0.04119868 0 0 Z " fill="#FFFFFF" transform="translate(190.875,-0.1875)"/>
</svg>
