<svg width="34" height="40" viewBox="0 0 34 40" fill="none" xmlns="http://www.w3.org/2000/svg">
<g id="Group">
<path id="Vector" d="M28.8305 4.89453C25.6719 1.73828 21.4719 0 17.0047 0C12.5383 0 8.33828 1.73828 5.17969 4.89453C2.02109 8.05078 0.28125 12.2469 0.28125 16.7102C0.28125 19.8336 1.14766 22.9953 2.85547 26.1086C4.19922 28.557 6.06484 30.9805 8.40078 33.3125C12.3492 37.2531 16.2484 39.5562 16.4125 39.6523L17.0047 40L17.5977 39.6523C17.7617 39.5562 21.6602 37.2531 25.6086 33.3125C27.9445 30.9805 29.8109 28.557 31.1539 26.1086C32.8625 22.9953 33.7281 19.8336 33.7281 16.7102C33.7281 12.2469 31.9891 8.05078 28.8305 4.89453Z" fill="#FE7437"/>
<path id="Vector_2" d="M17.9277 18.9487H16.0723C15.2194 18.9487 14.526 18.2554 14.526 17.4025V15.547C14.526 14.6941 15.2194 14.0008 16.0723 14.0008H17.9277C18.7806 14.0008 19.474 14.6941 19.474 15.547V17.4025C19.474 18.2554 18.7806 18.9487 17.9277 18.9487ZM16.3815 17.0932H17.6185V15.8563H16.3815V17.0932ZM21.0202 22.6597H12.9798C11.1046 22.6597 9.57812 21.1332 9.57812 19.258V13.9303C9.57812 12.7985 10.1385 11.7445 11.0773 11.1106L15.0975 8.3979C16.2522 7.61737 17.7471 7.61737 18.9031 8.3979L22.9227 11.1106C23.8615 11.7439 24.4219 12.7985 24.4219 13.9303V19.258C24.4219 21.1332 22.8954 22.6597 21.0202 22.6597ZM17 9.66951C16.6994 9.66951 16.3976 9.75858 16.136 9.93608L12.1152 12.6482C11.689 12.9364 11.4336 13.4151 11.4336 13.9297V19.2573C11.4336 20.1102 12.1269 20.8036 12.9798 20.8036H21.0202C21.8731 20.8036 22.5664 20.1102 22.5664 19.2573V13.9303C22.5664 13.4157 22.3116 12.937 21.8848 12.6488L17.8646 9.93608C17.6018 9.75858 17.3006 9.66951 17 9.66951Z" fill="white"/>
</g>
</svg>
