<svg width="21" height="21" viewBox="0 0 21 21" fill="none" xmlns="http://www.w3.org/2000/svg">
<g clip-path="url(#clip0_168_3150)">
<path d="M0.947266 10.9318C0.947266 12.155 1.1673 13.3267 1.56926 14.41L10.9473 15.2796L20.3253 14.41C20.7272 13.3267 20.9473 12.155 20.9473 10.9318C20.9473 9.70859 20.7272 8.53687 20.3253 7.45355L10.9473 6.58398L1.56926 7.45355C1.1673 8.53687 0.947266 9.70859 0.947266 10.9318Z" fill="#FFDA44"/>
<path d="M20.3268 7.45438C18.9139 3.64641 15.2485 0.932617 10.9488 0.932617C6.64916 0.932617 2.98373 3.64641 1.5708 7.45438H20.3268Z" fill="#D80027"/>
<path d="M1.56982 14.4111C2.98275 18.2191 6.64818 20.9329 10.9478 20.9329C15.2475 20.9329 18.9129 18.2191 20.3258 14.4111H1.56982Z" fill="#D80027"/>
</g>
<defs>
<clipPath id="clip0_168_3150">
<rect width="20" height="20" fill="white" transform="translate(0.947266 0.932617)"/>
</clipPath>
</defs>
</svg>
