<svg width="21" height="21" viewBox="0 0 21 21" fill="none" xmlns="http://www.w3.org/2000/svg">
<g clip-path="url(#clip0_168_3151)">
<path d="M10.9473 20.9326C16.4701 20.9326 20.9473 16.4555 20.9473 10.9326C20.9473 5.40977 16.4701 0.932617 10.9473 0.932617C5.42442 0.932617 0.947266 5.40977 0.947266 10.9326C0.947266 16.4555 5.42442 20.9326 10.9473 20.9326Z" fill="#F0F0F0"/>
<path d="M3.01469 4.84375C2.22918 5.86574 1.63687 7.04367 1.29199 8.32332H6.49426L3.01469 4.84375Z" fill="#0052B4"/>
<path d="M20.6031 8.32328C20.2582 7.04367 19.6658 5.86574 18.8804 4.84375L15.4009 8.32328H20.6031Z" fill="#0052B4"/>
<path d="M1.29199 13.541C1.63691 14.8206 2.22922 15.9986 3.01469 17.0205L6.49414 13.541H1.29199Z" fill="#0052B4"/>
<path d="M17.0352 2.9991C16.0132 2.21359 14.8353 1.62129 13.5557 1.27637V6.4786L17.0352 2.9991Z" fill="#0052B4"/>
<path d="M4.85889 18.8642C5.88088 19.6497 7.05881 20.242 8.33842 20.587V15.3848L4.85889 18.8642Z" fill="#0052B4"/>
<path d="M8.33838 1.27637C7.05877 1.62129 5.88084 2.21359 4.85889 2.99906L8.33838 6.47855V1.27637Z" fill="#0052B4"/>
<path d="M13.5557 20.587C14.8353 20.242 16.0132 19.6497 17.0352 18.8643L13.5557 15.3848V20.587Z" fill="#0052B4"/>
<path d="M15.4009 13.541L18.8804 17.0205C19.6658 15.9986 20.2582 14.8206 20.6031 13.541H15.4009Z" fill="#0052B4"/>
<path d="M20.8626 9.62828H12.2517H12.2516V1.01727C11.8246 0.96168 11.3893 0.932617 10.9473 0.932617C10.5051 0.932617 10.0699 0.96168 9.64293 1.01727V9.6282V9.62824H1.03191C0.976328 10.0552 0.947266 10.4905 0.947266 10.9326C0.947266 11.3748 0.976328 11.81 1.03191 12.237H9.64285H9.64289V20.848C10.0699 20.9036 10.5051 20.9326 10.9473 20.9326C11.3893 20.9326 11.8246 20.9036 12.2516 20.848V12.237V12.237H20.8626C20.9182 11.81 20.9473 11.3748 20.9473 10.9326C20.9473 10.4905 20.9182 10.0552 20.8626 9.62828Z" fill="#D80027"/>
<path d="M13.5562 13.542L18.0185 18.0044C18.2237 17.7992 18.4195 17.5847 18.6063 17.3624L14.7859 13.542H13.5562V13.542Z" fill="#D80027"/>
<path d="M8.33836 13.542H8.33828L3.87598 18.0043C4.08113 18.2095 4.29562 18.4053 4.51797 18.5921L8.33836 14.7716V13.542Z" fill="#D80027"/>
<path d="M8.33824 8.32379V8.32371L3.8759 3.86133C3.67066 4.06648 3.47488 4.28098 3.28809 4.50332L7.10852 8.32375H8.33824V8.32379Z" fill="#D80027"/>
<path d="M13.5562 8.32461L18.0185 3.86219C17.8134 3.65695 17.5989 3.46117 17.3765 3.27441L13.5562 7.09484V8.32461V8.32461Z" fill="#D80027"/>
</g>
<defs>
<clipPath id="clip0_168_3151">
<rect width="20" height="20" fill="white" transform="translate(0.947266 0.932617)"/>
</clipPath>
</defs>
</svg>
