<svg width="21" height="21" viewBox="0 0 21 21" fill="none" xmlns="http://www.w3.org/2000/svg">
<g clip-path="url(#clip0_168_3149)">
<path d="M10.9473 20.9326C16.4701 20.9326 20.9473 16.4555 20.9473 10.9326C20.9473 5.40977 16.4701 0.932617 10.9473 0.932617C5.42442 0.932617 0.947266 5.40977 0.947266 10.9326C0.947266 16.4555 5.42442 20.9326 10.9473 20.9326Z" fill="#F0F0F0"/>
<path d="M20.3253 14.4106C20.7273 13.3273 20.9473 12.1555 20.9473 10.9323C20.9473 9.70914 20.7273 8.53742 20.3253 7.4541H1.56926C1.1673 8.53742 0.947266 9.70914 0.947266 10.9323C0.947266 12.1555 1.1673 13.3273 1.56926 14.4106L10.9473 15.2802L20.3253 14.4106Z" fill="#0052B4"/>
<path d="M10.9473 20.9319C15.247 20.9319 18.9124 18.2182 20.3254 14.4102H1.56934C2.98227 18.2182 6.6477 20.9319 10.9473 20.9319Z" fill="#D80027"/>
</g>
<defs>
<clipPath id="clip0_168_3149">
<rect width="20" height="20" fill="white" transform="translate(0.947266 0.932617)"/>
</clipPath>
</defs>
</svg>
